<svg id="SvgjsSvg1001" width="256" height="256" xmlns="http://www.w3.org/2000/svg" version="1.1" xmlns:xlink="http://www.w3.org/1999/xlink" xmlns:svgjs="http://svgjs.com/svgjs"><defs id="SvgjsDefs1002"></defs><g id="SvgjsG1008"><svg xmlns="http://www.w3.org/2000/svg" enable-background="new 0 0 4000 4000" viewBox="0 0 4000 4000" width="256" height="256"><path fill="#ffffff" d="M2197.59,2699.918c6.246-1.066,11.426-2.082,16.656-5.18c6.246-2.082,11.426-4.164,16.656-7.312
				C2219.426,2691.59,2209.016,2696.82,2197.59,2699.918z" class="colorfff svgShape"></path><path fill="#ffffff" d="M2230.902,2687.426c-5.23,3.148-10.41,5.23-16.656,7.312c-5.23,3.098-10.41,4.113-16.656,5.18
				C2209.016,2696.82,2219.426,2691.59,2230.902,2687.426z" class="colorfff svgShape"></path><path fill="#ffffff" d="M2000,1272c-401.426,0-728,326.574-728,728s326.574,728,728,728
				c68.656,0,135.18-9.344,197.59-28.082c11.426-3.098,21.836-8.328,33.312-12.492C2518.984,2591.754,2728,2320.328,2728,2000
				C2728,1598.574,2401.426,1272,2000,1272z M2312,2416c0-401.426-326.574-728-728-728c94.656-125.836,246.492-208,416-208
				c287.016,0,520,232.984,520,520C2520,2169.508,2437.836,2321.344,2312,2416z" class="colorfff svgShape"></path><path fill="#ffffff" d="M2230.902 2687.426c-5.23 3.148-10.41 5.23-16.656 7.312-5.23 3.098-10.41 4.113-16.656 5.18C2209.016 2696.82 2219.426 2691.59 2230.902 2687.426zM2000 1168c-57.434 0-104-46.566-104-104V856c0-57.434 46.566-104 104-104 57.434 0 104 46.566 104 104v208C2104 1121.434 2057.434 1168 2000 1168zM2765.857 1338.143c-26.622 0-53.231-10.156-73.544-30.469-40.612-40.6-40.612-106.463.013-147.062l147.075-147.062c40.612-40.625 106.463-40.574 147.075 0 40.612 40.6 40.612 106.463-.013 147.062l-147.075 147.062C2819.089 1327.986 2792.467 1338.143 2765.857 1338.143zM3144 2104h-208c-57.434 0-104-46.566-104-104s46.566-104 104-104h208c57.434 0 104 46.566 104 104C3248 2057.434 3201.434 2104 3144 2104zM2912.933 3016.92c-26.622 0-53.231-10.156-73.531-30.469l-147.075-147.062c-40.625-40.6-40.625-106.463-.013-147.062 40.625-40.625 106.476-40.625 147.075 0l147.075 147.062c40.625 40.6 40.625 106.463.013 147.062C2966.164 3006.764 2939.542 3016.92 2912.933 3016.92zM2000 3248c-57.434 0-104-46.566-104-104v-208c0-57.434 46.566-104 104-104 57.434 0 104 46.566 104 104v208C2104 3201.434 2057.434 3248 2000 3248zM1087.067 3016.92c-26.622 0-53.231-10.156-73.544-30.469-40.612-40.6-40.612-106.463.013-147.062l147.075-147.062c40.625-40.625 106.476-40.6 147.075 0 40.612 40.6 40.612 106.463-.013 147.062l-147.075 147.062C1140.299 3006.764 1113.677 3016.92 1087.067 3016.92zM1064 2104H856c-57.434 0-104-46.566-104-104s46.566-104 104-104h208c57.434 0 104 46.566 104 104C1168 2057.434 1121.434 2104 1064 2104zM1234.143 1338.143c-26.622 0-53.231-10.156-73.531-30.469l-147.075-147.062c-40.625-40.6-40.625-106.463-.013-147.062 40.638-40.625 106.488-40.574 147.075 0l147.075 147.062c40.625 40.6 40.625 106.463.013 147.062C1287.374 1327.986 1260.765 1338.143 1234.143 1338.143z" class="colorfff svgShape"></path></svg></g></svg>